# xmcd
#
# Track frame offsets: 
#        150
#        11358
#        36924
#        44189
#        64345
#        86237
#        100853
#        114281
#        139147
#        150878
#        171105
#        193271
#        205614
#        221147
#        240830
#        267488
#        285186
#        305453
#        331859
#
# Disc length: 4776 seconds
#
# Revision: 0
# Processed by: cddbd v1.5.2PL0 Copyright (c) Steve Scherf et al.
# Submitted via: ExactAudioCopy v1.1
#
DISCID=0912a613
DTITLE=Various Artist - 1000 Klassiekers Radio 2 Vol. 01 - CD 3
DYEAR=2009
DGENRE=Pop
TTITLE0=Will Tura - Eenzaam Zonder Jou
TTITLE1=Barry Ryan - Eloise
TTITLE2=Wannes Van De Velde - Ik Wil Deze Nacht In De Straten Verdwale
TTITLE2=n
TTITLE3=Bonnie Tyler - Total Eclipse Of The Heart
TTITLE4=Simon and Garfunkel - Bridge Over Troubled Water
TTITLE5=Wim Sonneveld - Het Dorp
TTITLE6=Scott McKenzie - San Francisco (Be Sure To Wear Some Flowers I
TTITLE6=n Your Hair)
TTITLE7=Gorky - Mia
TTITLE8=Johnny Cash - Ring Of Fire
TTITLE9=Alice Cooper - Poison
TTITLE10=Ike and Tina Turner - Proud Mary
TTITLE11=Cliff Richard and The Shadows - Lucky Lips
TTITLE12=Benny Neyman - Vrijgezel
TTITLE13=Toto - Africa
TTITLE14=Jennifer Rush - The Power Of Love
TTITLE15=3T - I Need You
TTITLE16=Joe Dassin - L'Eté Indien
TTITLE17=Wim De Craene - Tim
TTITLE18=John Miles - Music
EXTD=
EXTT0=
EXTT1=
EXTT2=
EXTT3=
EXTT4=
EXTT5=
EXTT6=
EXTT7=
EXTT8=
EXTT9=
EXTT10=
EXTT11=
EXTT12=
EXTT13=
EXTT14=
EXTT15=
EXTT16=
EXTT17=
EXTT18=
PLAYORDER=
